<svg width="22" height="20" viewBox="0 0 22 20" fill="none" xmlns="http://www.w3.org/2000/svg">
<g clip-path="url(#clip0)">
<path d="M18.2977 18.2149C18.803 18.2149 19.2126 17.8463 19.2126 17.3915C19.2126 16.9368 18.803 16.5681 18.2977 16.5681C17.7924 16.5681 17.3828 16.9368 17.3828 17.3915C17.3828 17.8463 17.7924 18.2149 18.2977 18.2149Z" stroke="white" stroke-width="1.82979" stroke-linecap="round" stroke-linejoin="round"/>
<path d="M8.23423 18.2149C8.73951 18.2149 9.14912 17.8463 9.14912 17.3915C9.14912 16.9368 8.73951 16.5681 8.23423 16.5681C7.72895 16.5681 7.31934 16.9368 7.31934 17.3915C7.31934 17.8463 7.72895 18.2149 8.23423 18.2149Z" stroke="white" stroke-width="1.82979" stroke-linecap="round" stroke-linejoin="round"/>
<path d="M0.915039 0.923584H4.5746L7.02651 11.949C7.11018 12.3281 7.33932 12.6686 7.67384 12.9109C8.00836 13.1533 8.42694 13.2821 8.8563 13.2746H17.749C18.1784 13.2821 18.597 13.1533 18.9315 12.9109C19.266 12.6686 19.4952 12.3281 19.5788 11.949L21.0427 5.04061H5.4895" stroke="white" stroke-width="1.82979" stroke-linecap="round" stroke-linejoin="round"/>
</g>
<defs>
<clipPath id="clip0">
<rect width="21.9574" height="19.7617" fill="white" transform="translate(0 0.100098)"/>
</clipPath>
</defs>
</svg>
