<svg width="22" height="22" viewBox="0 0 22 22" fill="none" xmlns="http://www.w3.org/2000/svg">
<path d="M9.27051 0.5C4.17128 0.5 0.0224609 4.64791 0.0224609 9.74604C0.0224609 14.8444 4.17128 18.9921 9.27051 18.9921C14.37 18.9921 18.5186 14.8444 18.5186 9.74604C18.5186 4.64791 14.37 0.5 9.27051 0.5ZM9.27051 17.2852C5.11259 17.2852 1.72979 13.9031 1.72979 9.74608C1.72979 5.58906 5.11259 2.20696 9.27051 2.20696C13.4284 2.20696 16.8112 5.58902 16.8112 9.74604C16.8112 13.903 13.4284 17.2852 9.27051 17.2852Z" fill="#dfdfdf"/>
<path d="M20.7726 20.0431L15.8782 15.1497C15.5446 14.8163 15.0045 14.8163 14.671 15.1497C14.3375 15.4829 14.3375 16.0234 14.671 16.3566L19.5655 21.2499C19.7322 21.4166 19.9505 21.5 20.169 21.5C20.3873 21.5 20.6058 21.4166 20.7726 21.2499C21.1061 20.9168 21.1061 20.3762 20.7726 20.0431Z" fill="#dfdfdf"/>
</svg>
